Coordinates
version=1
nRows=13
nColumns=22
inDegrees=yes

Units are S.I. units (second, meters, Newtons, ...)
If the header above contains a line with 'inDegrees', this indicates whether rotational values are in degrees (yes) or radians (no).

endheader
time	pelvis_tilt	pelvis_list	pelvis_rotation	pelvis_tx	pelvis_ty	pelvis_tz	hip_flexion_r	hip_adduction_r	hip_rotation_r	knee_angle_r	ankle_angle_r	subtalar_angle_r	hip_flexion_l	hip_adduction_l	hip_rotation_l	knee_angle_l	ankle_angle_l	subtalar_angle_l	lumbar_extension	lumbar_bending	lumbar_rotation
      3.66000000	      5.51343750	      3.04182392	     80.00546354	     -0.19907584	      0.99840966	     -0.47298375	    -13.27029802	      7.73609876	     -5.75951577	    -16.17455547	     15.44124897	      4.34488694	     18.86397320	     -4.49838646	     -5.96529186	    -17.02998999	      0.35470396	      0.36727694	    -14.76036567	      4.79402297	      4.74451253
      3.67000000	      5.33024841	      3.08912611	     80.19911743	     -0.19890531	      0.99868842	     -0.48062746	    -13.35301747	      7.48847479	     -5.74142027	    -16.85682200	     15.15343432	      5.04533690	     18.89486305	     -4.25026471	     -5.85972047	    -17.91728242	      0.24339465	     -0.04607500	    -14.53915028	      4.58178935	      4.45574891
      3.68000000	      5.12710003	      3.12716575	     80.39520894	     -0.19881454	      0.99906865	     -0.48825955	    -13.34472148	      7.20905262	     -5.74258148	    -17.67111254	     14.79865180	      5.69653300	     18.88911817	     -3.96278763	     -5.68349431	    -18.71504301	      0.23888472	     -0.40701618	    -14.31206831	      4.35267807	      4.18773400
      3.69000000	      4.96535893	      3.14880338	     80.55364650	     -0.19873967	      0.99952906	     -0.49583130	    -13.25944120	      6.95968408	     -5.66453432	    -18.59197606	     14.35994427	      6.47047027	     18.86665743	     -3.72242532	     -5.52983722	    -19.47135283	      0.38148414	     -0.83982500	    -14.09163589	      4.17162430	      3.99387316
      3.70000000	      4.82897940	      3.16136939	     80.67632845	     -0.19870389	      1.00005250	     -0.50331286	    -13.08369401	      6.71864357	     -5.54520823	    -19.64855002	     13.85584604	      7.27034173	     18.79967443	     -3.50154687	     -5.36920962	    -20.13664370	      0.61652400	     -1.30155543	    -13.88521936	      4.01936637	      3.88265536
      3.71000000	      4.70896475	      3.15522762	     80.75469060	     -0.19868449	      1.00060596	     -0.51069870	    -12.80926736	      6.47892156	     -5.37126880	    -20.83113567	     13.27703500	      8.07071492	     18.69879147	     -3.29743027	     -5.22871572	    -20.71260416	      0.92975212	     -1.77895875	    -13.67769662	      3.88699994	      3.82880696
      3.72000000	      4.61001747	      3.13378495	     80.78360473	     -0.19867103	      1.00117322	     -0.51795680	    -12.43578343	      6.24458502	     -5.14663946	    -22.14426200	     12.62487484	      8.85785331	     18.56088710	     -3.11798743	     -5.12014099	    -21.19866336	      1.30293328	     -2.26890342	    -13.47634442	      3.77754401	      3.84471867
      3.73000000	      4.52582388	      3.09805337	     80.76559974	     -0.19865797	      1.00173507	     -0.52507846	    -11.96520658	      6.01085158	     -4.88414875	    -23.58191767	     11.90117165	      9.60803546	     18.38849697	     -2.95840831	     -5.04980298	    -21.59893400	      1.72070562	     -2.75822776	    -13.27949332	      3.68357827	      3.91538642
      3.74000000	      4.44896307	      3.05160178	     80.70785537	     -0.19862617	      1.00228124	     -0.53204752	    -11.40361350	      5.77403235	     -4.59931531	    -25.13622950	     11.10768931	     10.28857499	     18.18651901	     -2.81334648	     -5.01912750	    -21.92327396	      2.17141391	     -3.22602761	    -13.08902471	      3.59258179	      4.02514954
      3.75000000	      4.37203174	      2.99868390	     80.60700975	     -0.19857514	      1.00280875	     -0.53886829	    -10.75791863	      5.52403268	     -4.30629370	    -26.79902842	     10.25457311	     10.85597967	     17.95288079	     -2.67840125	     -5.04591718	    -22.17534968	      2.62754476	     -3.64135125	    -12.90503604	      3.50145776	      4.16360513
      3.76000000	      4.30122351	      2.92732330	     80.51379596	     -0.19854247	      1.00327046	     -0.54554071	    -10.02839484	      5.28067856	     -4.05703239	    -28.54923317	      9.36232030	     11.37614121	     17.71820677	     -2.54681193	     -5.05098976	    -22.37562024	      3.13485620	     -4.06057461	    -12.71050701	      3.42090495	      4.27221893
      3.77000000	      4.20682318	      2.86958406	     80.38156543	     -0.19843131	      1.00373270	     -0.55204235	     -9.24268720	      5.00276752	     -3.81103851	    -30.38823367	      8.43839716	     11.70041359	     17.45024357	     -2.40835047	     -5.13926396	    -22.52720921	      3.59511780	     -4.36594312	    -12.54061408	      3.29783354	      4.40612199
      3.78000000	      4.10463046	      2.78966313	     80.27495283	     -0.19833336	      1.00410405	     -0.55839558	     -8.38141769	      4.72447030	     -3.61901273	    -32.28590475	      7.50759175	     11.93978125	     17.21012233	     -2.26105405	     -5.20189996	    -22.66410506	      4.08020811	     -4.65759616	    -12.34901216	      3.17141997	      4.47404687
